<svg xmlns="http://www.w3.org/2000/svg" xmlns:xlink="http://www.w3.org/1999/xlink" width="50" zoomAndPan="magnify" viewBox="0 0 37.5 37.499999" height="50" preserveAspectRatio="xMidYMid meet" version="1.0"><defs><clipPath id="b40f937813"><path d="M 0.839844 0 L 36.164062 0 L 36.164062 37.007812 L 0.839844 37.007812 Z M 0.839844 0 " clip-rule="nonzero"/></clipPath><clipPath id="440415069e"><path d="M 2.421875 0 L 34.582031 0 C 35.457031 0 36.164062 0.707031 36.164062 1.582031 L 36.164062 35.425781 C 36.164062 36.296875 35.457031 37.007812 34.582031 37.007812 L 2.421875 37.007812 C 1.550781 37.007812 0.839844 36.296875 0.839844 35.425781 L 0.839844 1.582031 C 0.839844 0.707031 1.550781 0 2.421875 0 Z M 2.421875 0 " clip-rule="nonzero"/></clipPath><clipPath id="15e4791056"><path d="M 2.355469 2.394531 L 34.921875 2.394531 L 34.921875 34.960938 L 2.355469 34.960938 Z M 2.355469 2.394531 " clip-rule="nonzero"/></clipPath></defs><g clip-path="url(#b40f937813)"><g clip-path="url(#440415069e)"><path fill="#545454" d="M 0.839844 0 L 36.164062 0 L 36.164062 37.007812 L 0.839844 37.007812 Z M 0.839844 0 " fill-opacity="1" fill-rule="nonzero"/></g></g><g clip-path="url(#15e4791056)"><path fill="#ffffff" d="M 28.414062 2.816406 C 28.011719 2.414062 27.296875 2.414062 26.898438 2.816406 L 5.050781 24.664062 C 5.050781 24.664062 5.046875 24.664062 5.046875 24.667969 L 5.042969 24.667969 C 5.042969 24.671875 5.042969 24.671875 5.039062 24.675781 C 4.953125 24.761719 4.886719 24.871094 4.835938 24.984375 C 4.824219 25.011719 4.8125 25.039062 4.800781 25.066406 C 4.792969 25.09375 4.777344 25.113281 4.769531 25.140625 L 2.5 33.324219 C 2.398438 33.695312 2.503906 34.09375 2.777344 34.367188 C 2.980469 34.574219 3.253906 34.683594 3.535156 34.683594 C 3.628906 34.683594 3.726562 34.671875 3.820312 34.644531 L 12.003906 32.375 C 12.03125 32.371094 12.054688 32.355469 12.078125 32.34375 C 12.105469 32.335938 12.132812 32.324219 12.160156 32.308594 C 12.277344 32.257812 12.382812 32.191406 12.46875 32.105469 C 12.472656 32.101562 12.472656 32.101562 12.476562 32.101562 L 12.480469 32.097656 C 12.480469 32.097656 12.480469 32.097656 12.480469 32.09375 L 34.328125 10.25 C 34.53125 10.046875 34.644531 9.773438 34.644531 9.492188 C 34.644531 9.207031 34.53125 8.933594 34.328125 8.730469 Z M 23.996094 8.75 L 28.394531 13.148438 L 11.71875 29.824219 L 7.320312 25.429688 Z M 5.074219 32.070312 L 6.34375 27.488281 L 9.65625 30.800781 Z M 29.910156 11.632812 L 25.511719 7.234375 L 27.65625 5.09375 L 32.054688 9.492188 Z M 29.910156 11.632812 " fill-opacity="1" fill-rule="nonzero"/></g></svg>